<?xml version="1.0" encoding="UTF-8" standalone="no"?>
<!DOCTYPE svg PUBLIC "-//W3C//DTD SVG 20010904//EN"
              "http://www.w3.org/TR/2001/REC-SVG-20010904/DTD/svg10.dtd">
<svg xmlns="http://www.w3.org/2000/svg" width="16" height="16" viewBox="0 0 16 16">
    <path id="github" fill="black" stroke="none" d="M 16.00,8.00
           C 16.00,11.53 13.71,14.53 10.53,15.59
             10.13,15.67 9.98,15.42 9.98,15.21
             9.98,14.94 9.99,14.08 9.99,13.01
             9.99,12.27 9.74,11.78 9.45,11.53
             11.23,11.33 13.10,10.66 13.10,7.58
             13.10,6.71 12.79,6.00 12.28,5.44
             12.36,5.23 12.64,4.42 12.20,3.32
             12.20,3.32 11.53,3.10 10.00,4.14
             9.36,3.96 8.68,3.87 8.00,3.87
             7.32,3.87 6.64,3.96 6.00,4.14
             4.47,3.10 3.80,3.32 3.80,3.32
             3.36,4.42 3.64,5.23 3.72,5.44
             3.21,6.00 2.90,6.71 2.90,7.58
             2.90,10.65 4.76,11.33 6.54,11.54
             6.31,11.74 6.10,12.09 6.03,12.61
             5.58,12.81 4.42,13.16 3.70,11.94
             3.70,11.94 3.28,11.17 2.48,11.12
             2.48,11.12 1.70,11.11 2.42,11.60
             2.42,11.60 2.95,11.85 3.31,12.77
             3.31,12.77 3.78,14.20 6.01,13.72
             6.01,14.38 6.02,15.02 6.02,15.21
             6.02,15.42 5.87,15.66 5.47,15.59
             2.29,14.53 0.00,11.54 0.00,8.00
             0.00,3.58 3.58,0.00 8.00,0.00
             12.42,0.00 16.00,3.58 16.00,8.00 Z" />
</svg>