<?xml version="1.0" encoding="UTF-8" standalone="no"?>
<!DOCTYPE svg PUBLIC "-//W3C//DTD SVG 20010904//EN"
              "http://www.w3.org/TR/2001/REC-SVG-20010904/DTD/svg10.dtd">
<svg xmlns="http://www.w3.org/2000/svg" width="16" height="16" viewBox="0 0 16 16">
    <path id="linkedin-circle" fill="#0077B5" stroke="none" d="M 15.28,8.12
           C 15.28,4.16 12.08,0.96 8.12,0.96
             4.16,0.96 0.96,4.16 0.96,8.12
             0.96,12.08 4.16,15.28 8.12,15.28
             12.08,15.28 15.28,12.08 15.28,8.12 Z" />

    <path id="linkedin-n" fill="#ffffff" stroke="none" d="M 12.14,11.50
           C 12.14,11.50 10.52,11.50 10.52,11.50
             10.52,11.50 10.52,8.89 10.52,8.89
             10.52,8.23 10.28,7.78 9.70,7.78
             9.25,7.78 8.98,8.08 8.87,8.38
             8.82,8.48 8.81,8.63 8.81,8.77
             8.81,8.77 8.81,11.50 8.81,11.50
             8.81,11.50 7.19,11.50 7.19,11.50
             7.19,11.50 7.21,7.08 7.19,6.62
             7.19,6.62 8.81,6.62 8.81,6.62
             8.81,6.62 8.81,7.31 8.81,7.31
             9.03,6.98 9.41,6.50 10.27,6.50
             11.34,6.50 12.14,7.20 12.14,8.70
             12.14,8.70 12.14,11.50 12.14,11.50
             12.14,11.50 12.14,11.50 12.14,11.50 Z" />

    <path id="linkedin-i" fill="#ffffff" stroke="none" d="M 4.67,11.50
           C 4.67,11.50 4.67,6.62 4.67,6.62
             4.67,6.62 6.29,6.62 6.29,6.62
             6.29,6.62 6.29,11.50 6.29,11.50
             6.29,11.50 4.67,11.50 4.67,11.50 Z" />

    <path id="linkedin-idot" fill="#ffffff" stroke="none" d="M 5.47,5.95
           C 4.93,5.95 4.58,5.58 4.58,5.11
             4.58,4.63 4.94,4.27 5.49,4.27
             6.05,4.27 6.39,4.63 6.40,5.11
             6.40,5.58 6.05,5.95 5.48,5.95
             5.48,5.95 5.47,5.95 5.47,5.95 Z" />


 </svg>