<?xml version="1.0" encoding="UTF-8" standalone="no"?>
<!DOCTYPE svg PUBLIC "-//W3C//DTD SVG 20010904//EN"
              "http://www.w3.org/TR/2001/REC-SVG-20010904/DTD/svg10.dtd">

<svg xmlns="http://www.w3.org/2000/svg"
     width="280" height="200"
     viewBox="0 0 280 200">
  <path id="svg-logo-small"
        fill="none" stroke="black" stroke-width="0.5"
        d="M 147.13,97.67
           C 147.13,93.50 143.75,90.17 139.63,90.17
             135.47,90.17 132.13,93.50 132.13,97.67
             132.13,100.44 133.63,102.80 135.88,104.12
             135.88,104.12 135.88,113.75 135.88,113.75
             135.88,114.77 136.74,115.63 137.75,115.63
             137.75,115.63 141.50,115.63 141.50,115.63
             142.52,115.63 143.38,114.77 143.38,113.75
             143.38,113.75 143.38,104.12 143.38,104.12
             145.63,102.80 147.13,100.44 147.13,97.67 Z
           M 141.37,74.38
           C 144.39,74.35 147.95,75.21 150.78,76.27
             153.78,77.39 156.60,79.14 159.03,81.22
             171.46,91.91 172.03,110.68 160.94,122.53
             158.92,124.68 155.91,126.81 153.27,128.14
             148.79,130.41 144.23,131.23 139.26,131.17
             137.05,131.14 134.08,130.54 131.96,129.90
             115.53,124.99 107.48,106.27 114.55,90.85
             117.39,84.64 122.59,79.41 128.89,76.72
             132.30,75.26 134.52,74.93 138.10,74.38
             138.10,74.38 141.37,74.38 141.37,74.38 Z
           M 181.02,99.88
           C 181.02,100.17 265.00,16.67 265.00,16.67
             265.00,16.67 15.00,16.67 15.00,16.67
             15.00,16.67 62.15,64.02 99.00,100.88
             99.00,78.25 116.62,59.62 140.00,59.62
             162.00,59.00 181.00,78.50 181.02,99.88 Z
           M 192.08,110.42
           C 192.08,110.42 265.00,183.33 265.00,183.33
             265.00,183.33 15.00,183.33 15.00,183.33
             15.00,183.33 87.88,110.50 87.92,110.42
             103.75,127.50 117.25,144.25 140.00,145.00
             162.50,144.00 173.50,129.00 192.08,110.42 Z
           M 265.00,37.50
           C 265.00,37.50 265.00,162.50 265.00,162.50
             265.00,162.50 202.50,100.00 202.50,100.00
             202.50,100.00 265.00,37.50 265.00,37.50 Z
           M 77.50,100.00
           C 77.50,100.00 15.00,162.50 15.00,162.50
             15.00,162.50 15.00,37.50 15.00,37.50
             15.00,37.50 77.50,100.00 77.50,100.00 Z" />
</svg>
