<?xml version="1.0" encoding="UTF-8" standalone="no"?>
<!DOCTYPE svg PUBLIC "-//W3C//DTD SVG 20010904//EN"
              "http://www.w3.org/TR/2001/REC-SVG-20010904/DTD/svg10.dtd">

<svg xmlns="http://www.w3.org/2000/svg"
     width="42" height="30"
     viewBox="0 0 42 30"
     id="svg-logo-small">

  <path id="svg-logo-small-envelope-top"
        fill="none" stroke="black" stroke-width="0.5"
        d="M 27.15,14.98
           C 27.15,15.03 39.75,2.50 39.75,2.50
             39.75,2.50 2.25,2.50 2.25,2.50
             2.25,2.50 9.32,9.60 14.85,15.13
             14.85,11.74 17.49,8.94 21.00,8.94
             24.30,8.85 27.15,11.78 27.15,14.98 Z" />

  <path id="svg-logo-small-envelope-bottom"
        fill="none" stroke="black" stroke-width="0.5"
        d="M 28.81,16.56
           C 28.81,16.56 39.75,27.50 39.75,27.50
             39.75,27.50 2.25,27.50 2.25,27.50
             2.25,27.50 13.18,16.57 13.19,16.56
             15.56,19.12 17.59,21.64 21.00,21.75
             24.38,21.60 26.02,19.35 28.81,16.56 Z" />

  <path id="svg-logo-small-envelope-left"
        fill="none" stroke="black" stroke-width="0.5"
        d="M 11.62,15.00
           C 11.62,15.00 2.25,24.38 2.25,24.38
             2.25,24.38 2.25,5.62 2.25,5.62
             2.25,5.62 11.62,15.00 11.62,15.00 Z" />

  <path id="svg-logo-small-envelope-right"
        fill="none" stroke="black" stroke-width="0.5"
        d="M 39.75,5.62
           C 39.75,5.62 39.75,24.38 39.75,24.38
             39.75,24.38 30.38,15.00 30.38,15.00
             30.38,15.00 39.75,5.62 39.75,5.62 Z" />

    <path id="svg-logo-small-keyhole-ring"
        fill="rgb(200, 200, 200)" stroke="black" stroke-width="0.5"
        d="M 21.21,11.16
           C 21.66,11.15 22.19,11.28 22.62,11.44
             23.07,11.61 23.49,11.87 23.85,12.18
             25.72,13.79 25.80,16.60 24.14,18.38
             23.84,18.70 23.39,19.02 22.99,19.22
             22.32,19.56 21.63,19.68 20.89,19.68
             20.56,19.67 20.11,19.58 19.79,19.49
             17.33,18.75 16.12,15.94 17.18,13.63
             17.61,12.70 18.39,11.91 19.33,11.51
             19.84,11.29 20.18,11.24 20.72,11.16
             20.72,11.16 21.21,11.16 21.21,11.16 Z" />

   <path id="svg-logo-small-keyhole-hole"
        fill="black" stroke="black" stroke-width="0.5"
        d="M 22.07,14.65
           C 22.07,14.03 21.56,13.52 20.94,13.52
             20.32,13.52 19.82,14.03 19.82,14.65
             19.82,15.07 20.04,15.42 20.38,15.62
             20.38,15.62 20.38,17.06 20.38,17.06
             20.38,17.21 20.51,17.34 20.66,17.34
             20.66,17.34 21.23,17.34 21.23,17.34
             21.38,17.34 21.51,17.21 21.51,17.06
             21.51,17.06 21.51,15.62 21.51,15.62
             21.84,15.42 22.07,15.07 22.07,14.65 Z" />
</svg>
