<?xml version="1.0" encoding="UTF-8" standalone="no"?>
<!DOCTYPE svg PUBLIC "-//W3C//DTD SVG 20010904//EN"
              "http://www.w3.org/TR/2001/REC-SVG-20010904/DTD/svg10.dtd">
<svg xmlns="http://www.w3.org/2000/svg" width="16" height="16" viewBox="0 0 16 16">
    <path id="twitter" fill="#1da1f2" stroke="none" d="M 11.35,2.38
           C 11.55,2.43 11.91,2.63 12.17,2.80
             12.17,2.80 12.64,3.12 12.64,3.12
             12.64,3.12 13.15,2.96 13.15,2.96
             13.44,2.87 13.82,2.73 14.00,2.63
             14.16,2.54 14.30,2.49 14.30,2.52
             14.30,2.69 13.95,3.25 13.65,3.56
             13.25,3.99 13.36,4.03 14.18,3.74
             14.67,3.58 14.68,3.58 14.58,3.76
             14.52,3.86 14.23,4.20 13.91,4.51
             13.37,5.04 13.35,5.10 13.35,5.54
             13.35,6.23 13.02,7.66 12.69,8.45
             12.09,9.92 10.80,11.44 9.50,12.21
             7.68,13.28 5.26,13.55 3.22,12.92
             2.54,12.71 1.37,12.17 1.37,12.07
             1.37,12.04 1.73,12.00 2.16,11.99
             3.06,11.97 3.96,11.72 4.72,11.28
             4.72,11.28 5.24,10.97 5.24,10.97
             5.24,10.97 4.65,10.76 4.65,10.76
             3.80,10.47 3.05,9.80 2.86,9.18
             2.80,8.97 2.82,8.96 3.35,8.96
             3.35,8.96 3.91,8.95 3.91,8.95
             3.91,8.95 3.44,8.73 3.44,8.73
             2.88,8.45 2.38,7.97 2.13,7.49
             1.95,7.14 1.72,6.26 1.78,6.19
             1.80,6.16 2.00,6.22 2.23,6.30
             2.89,6.54 2.98,6.48 2.60,6.08
             1.88,5.34 1.66,4.25 2.00,3.21
             2.00,3.21 2.17,2.74 2.17,2.74
             2.17,2.74 2.80,3.37 2.80,3.37
             4.09,4.64 5.62,5.40 7.36,5.62
             7.36,5.62 7.84,5.68 7.84,5.68
             7.84,5.68 7.81,5.20 7.81,5.20
             7.72,3.97 8.48,2.85 9.68,2.42
             10.12,2.26 10.86,2.24 11.35,2.38 Z" />
</svg>
